# Blender 4.5.1 LTS
# www.blender.org
mtllib FireTrail.mtl
o FireTrail
v -1.000000 0.000000 0.002037
v 1.000000 0.000000 0.002037
v 0.000000 0.000000 -3.997963
v 0.000000 0.000000 -3.997963
v -0.366365 0.000000 -3.714160
v -0.624231 0.000000 -3.080572
v -0.796631 0.000000 -2.337017
v -0.903959 0.000000 -1.629018
v -0.963967 0.000000 -1.032174
v -0.991771 0.000000 -0.573374
v -0.999842 0.000000 -0.248853
v 0.999842 0.000000 -0.248853
v 0.991771 0.000000 -0.573374
v 0.963967 0.000000 -1.032174
v 0.903959 0.000000 -1.629018
v 0.796631 0.000000 -2.337017
v 0.624231 0.000000 -3.080572
v 0.366365 0.000000 -3.714160
v 0.000000 0.000000 0.002037
v 0.000000 0.000000 -3.997963
v 0.000000 0.000000 -0.248853
v 0.000000 0.000000 -0.573374
v 0.000000 0.000000 -1.032174
v 0.000000 0.000000 -1.629018
v 0.000000 0.000000 -2.337017
v 0.000000 0.000000 -3.080572
v 0.000000 0.000000 -3.714160
v 0.000000 1.000000 0.002037
v 0.000000 -1.000000 0.002037
v -0.000000 -0.000000 -3.997962
v -0.000000 -0.000000 -3.997962
v 0.000000 0.366365 -3.714160
v 0.000000 0.624231 -3.080572
v 0.000000 0.796631 -2.337017
v 0.000000 0.903959 -1.629018
v 0.000000 0.963967 -1.032174
v 0.000000 0.991771 -0.573374
v 0.000000 0.999842 -0.248853
v -0.000000 -0.999842 -0.248853
v -0.000000 -0.991771 -0.573374
v -0.000000 -0.963967 -1.032174
v -0.000000 -0.903959 -1.629018
v -0.000000 -0.796631 -2.337017
v -0.000000 -0.624231 -3.080572
v -0.000000 -0.366365 -3.714160
v -0.000000 -0.000000 0.002037
v -0.000000 -0.000000 -3.997962
v -0.000000 -0.000000 -0.248853
v -0.000000 -0.000000 -0.573374
v -0.000000 -0.000000 -1.032174
v -0.000000 -0.000000 -1.629018
v -0.000000 -0.000000 -2.337017
v -0.000000 -0.000000 -3.080572
v -0.000000 -0.000000 -3.714160
vn -0.0000 1.0000 -0.0000
vn 1.0000 -0.0000 -0.0000
vt 0.875000 0.500000
vt 0.875000 0.000000
vt 1.000000 0.000000
vt 1.000000 0.500000
vt 0.000000 0.500000
vt 0.000000 0.000000
vt 0.125000 0.000000
vt 0.125000 0.500000
vt 0.250000 0.000000
vt 0.250000 0.500000
vt 0.375000 0.000000
vt 0.375000 0.500000
vt 0.500000 0.000000
vt 0.500000 0.500000
vt 0.625000 0.000000
vt 0.625000 0.500000
vt 0.750000 0.000000
vt 0.750000 0.500000
vt 0.750000 1.000000
vt 0.875000 1.000000
vt 0.625000 1.000000
vt 0.500000 1.000000
vt 0.375000 1.000000
vt 0.250000 1.000000
vt 0.125000 1.000000
vt 0.000000 1.000000
vt 1.000000 1.000000
s 0
f 27/1/1 18/2/1 4/3/1 20/4/1
f 19/5/1 2/6/1 12/7/1 21/8/1
f 21/8/1 12/7/1 13/9/1 22/10/1
f 22/10/1 13/9/1 14/11/1 23/12/1
f 23/12/1 14/11/1 15/13/1 24/14/1
f 24/14/1 15/13/1 16/15/1 25/16/1
f 25/16/1 16/15/1 17/17/1 26/18/1
f 26/18/1 17/17/1 18/2/1 27/1/1
f 6/19/1 26/18/1 27/1/1 5/20/1
f 7/21/1 25/16/1 26/18/1 6/19/1
f 8/22/1 24/14/1 25/16/1 7/21/1
f 9/23/1 23/12/1 24/14/1 8/22/1
f 10/24/1 22/10/1 23/12/1 9/23/1
f 11/25/1 21/8/1 22/10/1 10/24/1
f 1/26/1 19/5/1 21/8/1 11/25/1
f 5/20/1 27/1/1 20/4/1 3/27/1
f 54/1/2 45/2/2 31/3/2 47/4/2
f 46/5/2 29/6/2 39/7/2 48/8/2
f 48/8/2 39/7/2 40/9/2 49/10/2
f 49/10/2 40/9/2 41/11/2 50/12/2
f 50/12/2 41/11/2 42/13/2 51/14/2
f 51/14/2 42/13/2 43/15/2 52/16/2
f 52/16/2 43/15/2 44/17/2 53/18/2
f 53/18/2 44/17/2 45/2/2 54/1/2
f 33/19/2 53/18/2 54/1/2 32/20/2
f 34/21/2 52/16/2 53/18/2 33/19/2
f 35/22/2 51/14/2 52/16/2 34/21/2
f 36/23/2 50/12/2 51/14/2 35/22/2
f 37/24/2 49/10/2 50/12/2 36/23/2
f 38/25/2 48/8/2 49/10/2 37/24/2
f 28/26/2 46/5/2 48/8/2 38/25/2
f 32/20/2 54/1/2 47/4/2 30/27/2
