{
	"asset":{
		"generator":"Khronos glTF Blender I/O v3.6.28",
		"version":"2.0"
	},
	"scene":0,
	"scenes":[
		{
			"name":"Scene",
			"nodes":[
				0
			]
		}
	],
	"nodes":[
		{
			"mesh":0,
			"name":"poop"
		}
	],
	"materials":[
		{
			"doubleSided":true,
			"name":"Material.001",
			"pbrMetallicRoughness":{
				"baseColorFactor":[
					0.04445471614599228,
					0.02055313065648079,
					0.0007606681901961565,
					1
				],
				"metallicFactor":0,
				"roughnessFactor":0.5
			}
		}
	],
	"meshes":[
		{
			"name":"Spiral",
			"primitives":[
				{
					"attributes":{
						"POSITION":0,
						"NORMAL":1,
						"TEXCOORD_0":2
					},
					"indices":3,
					"material":0
				}
			]
		}
	],
	"accessors":[
		{
			"bufferView":0,
			"componentType":5126,
			"count":691,
			"max":[
				0.5061599016189575,
				0.5392558574676514,
				0.44468367099761963
			],
			"min":[
				-0.48428815603256226,
				-0.001384863629937172,
				-0.5093256831169128
			],
			"type":"VEC3"
		},
		{
			"bufferView":1,
			"componentType":5126,
			"count":691,
			"type":"VEC3"
		},
		{
			"bufferView":2,
			"componentType":5126,
			"count":691,
			"type":"VEC2"
		},
		{
			"bufferView":3,
			"componentType":5123,
			"count":1836,
			"type":"SCALAR"
		}
	],
	"bufferViews":[
		{
			"buffer":0,
			"byteLength":8292,
			"byteOffset":0,
			"target":34962
		},
		{
			"buffer":0,
			"byteLength":8292,
			"byteOffset":8292,
			"target":34962
		},
		{
			"buffer":0,
			"byteLength":5528,
			"byteOffset":16584,
			"target":34962
		},
		{
			"buffer":0,
			"byteLength":3672,
			"byteOffset":22112,
			"target":34963
		}
	],
	"buffers":[
		{
			"byteLength":25784,
			"uri":"data:application/octet-stream;base64,"
		}
	]
}
